<svg id="Layer_1" data-name="Layer 1" xmlns="http://www.w3.org/2000/svg" viewBox="0 0 600 600"><defs><style>.cls-1{opacity:0.4;}.cls-2{fill:#9a9a9a;}.cls-3{fill:#5ae4a8;}.cls-4{fill:#1a2e35;}.cls-5{fill:#fff;}.cls-6{fill:#eff9f3;}.cls-7{fill:#fd4f48;}.cls-13,.cls-14,.cls-15,.cls-16,.cls-17,.cls-18,.cls-8{fill:#d5f7e6;}.cls-10,.cls-9{fill:none;stroke:#1a2e35;stroke-miterlimit:10;}.cls-10{stroke-width:3px;}.cls-11{fill:#575656;opacity:0.36;}.cls-12{fill:#f5f5f5;}.cls-13{font-size:35.42px;}.cls-13,.cls-14,.cls-15,.cls-16,.cls-17,.cls-18{font-family:ZohoPuvi-Bold, Zoho Puvi;font-weight:700;}.cls-14{font-size:50px;}.cls-15{font-size:35.42px;}.cls-16{font-size:68.46px;}.cls-17{font-size:30.84px;}.cls-18{font-size:96px;}</style></defs><g class="cls-1"><path class="cls-2" d="M382.08,265.14l16-11.6-7.59-22.13H370.7l-8.85-11.8,5.9-19.39-19.39-13.49-15.6,12.65-14.33-3.8-6.32-20.65H289.34l-7.16,20.65-14.33,3.8-16-11.38-19.39,13.49,6.74,17.28-10.11,14.75h-19l-8,20,16.44,12v16l-16.44,11.8L210.31,314h18.76l10.11,11.38-5.9,18.76L251,358.29l16.43-11.38,15.6,4.64,5.9,19.61h22.34L318,350.71l14.75-4.64,16.44,11.8L369,344.17l-7.16-17.91,9.27-13.07,19.81.42,7.17-22.13-16-11.17ZM299.82,328A55.17,55.17,0,1,1,355,272.8,55.17,55.17,0,0,1,299.82,328Z"/><path class="cls-2" d="M299.82,231.91a40.89,40.89,0,1,0,40.89,40.89A40.89,40.89,0,0,0,299.82,231.91Zm0,73.06A32.17,32.17,0,1,1,332,272.8,32.17,32.17,0,0,1,299.82,305Z"/></g><path class="cls-3" d="M140,228.5s4,11,22,7l7-12s3-6-6-9c0,0-20-9-31,6l-38,64s-5,7,3,14c0,0,28,28,79,42V297.84S147.05,267,117.52,281.72c0,0,3.94-7,16.71-6.09L144,237.5Z"/><path class="cls-3" d="M462,228.5s-4,11-22,7l-7-12s-3-6,6-9c0,0,20-9,31,6l38,64s5,7-3,14c0,0-28,28-79,42V297.84S455,267,484.48,281.72c0,0-3.94-7-16.71-6.09L458,237.5Z"/><path class="cls-4" d="M186.9,272.32H414.65a11.62,11.62,0,0,1,11.62,11.62V433.32a0,0,0,0,1,0,0h-251a0,0,0,0,1,0,0V283.94A11.62,11.62,0,0,1,186.9,272.32Z"/><rect class="cls-5" x="185.28" y="282.32" width="231" height="151"/><rect class="cls-6" x="185.28" y="282.32" width="231" height="18"/><circle class="cls-7" cx="199.28" cy="292.32" r="4"/><circle class="cls-8" cx="215.28" cy="292.32" r="4"/><circle class="cls-3" cx="232.28" cy="292.32" r="4"/><path class="cls-9" d="M175.28,433.32h251a0,0,0,0,1,0,0v14.47a11.53,11.53,0,0,1-11.53,11.53H186.81a11.53,11.53,0,0,1-11.53-11.53V433.32A0,0,0,0,1,175.28,433.32Z"/><path class="cls-9" d="M232.28,499.32h137s5-8-24-11c0,0-19-1-19-9.5v-12.7s.86-6.8,6.93-6.8H269.35a5.59,5.59,0,0,1,5.54,5.49l.39,14.51s-1,7-10,7l-24,4S232.28,493.32,232.28,499.32Z"/><path class="cls-3" d="M314.1,333.13a9.37,9.37,0,0,0-15.18,10.44l-14,14,.21,1.38.29.28,0,.85-.29.29.21,1.46h.56l.41-.4,2.44,0,1.7-1.7.2-.21-.14-2.09,2.09.15,1.34-1.34,0-1.4,1.42,0,6.11-6.11s1.21.77,1.76.22l.57-.57a9.36,9.36,0,0,0,10.26-15.25Zm-5.9,5.66a3,3,0,1,1,4.34,0A3.06,3.06,0,0,1,308.2,338.79Z"/><path class="cls-10" d="M268.63,337.55a33.15,33.15,0,0,1,64.44,4.21"/><path class="cls-10" d="M332.35,355.87a33.16,33.16,0,0,1-64.29-1.26"/><polyline class="cls-10" points="281.13 333.36 268.04 338.28 267.53 324.18"/><polyline class="cls-10" points="319.3 361.02 332.49 355.32 334.5 369.17"/><path class="cls-3" d="M401.89,408.26s-.94,8.69-8.69,8.22v28.87s-2.81,19.72,30.05,33.8c0,0,30.52-9.39,30.75-35.44v-27s-8,.94-8.45-8.45Z"/><circle class="cls-4" cx="423.45" cy="440.52" r="14.69"/><polygon class="cls-11" points="414.05 442.87 415.82 441.1 419.93 445.22 430.5 434.64 432.27 436.4 419.93 448.74 414.05 442.87"/><polygon class="cls-12" points="414.05 442.28 415.82 440.51 419.93 444.63 430.5 434.05 432.27 435.81 419.93 448.15 414.05 442.28"/><rect class="cls-3" x="259.05" y="392" width="82.94" height="19.55" rx="6.4"/><path class="cls-4" d="M272,405l.08-2-1.66,1.06-.76-1.32,1.74-.91-1.74-.91.76-1.32,1.66,1.06-.08-2h1.53l-.09,2,1.66-1.06.77,1.32-1.75.91,1.75.91-.77,1.32-1.66-1.06.09,2Z"/><path class="cls-4" d="M280.52,405l.08-2-1.66,1.06-.76-1.32,1.74-.91-1.74-.91.76-1.32,1.66,1.06-.08-2h1.53l-.09,2,1.66-1.06.77,1.32-1.75.91,1.75.91-.77,1.32L282,403.06l.09,2Z"/><path class="cls-4" d="M289.08,405l.07-2-1.66,1.06-.75-1.32,1.73-.91-1.73-.91.75-1.32,1.66,1.06-.07-2h1.53l-.1,2,1.66-1.06L293,401l-1.76.91,1.76.91-.78,1.32-1.66-1.06.1,2Z"/><path class="cls-4" d="M297.63,405l.07-2L296,404.12l-.75-1.32,1.73-.91-1.73-.91.75-1.32,1.66,1.06-.07-2h1.53l-.1,2,1.67-1.06.77,1.32-1.76.91,1.76.91-.77,1.32-1.67-1.06.1,2Z"/><path class="cls-4" d="M306.18,405l.08-2-1.66,1.06-.76-1.32,1.74-.91-1.74-.91.76-1.32,1.66,1.06-.08-2h1.53l-.09,2,1.66-1.06.77,1.32-1.75.91,1.75.91-.77,1.32-1.66-1.06.09,2Z"/><path class="cls-4" d="M314.73,405l.08-2-1.66,1.06-.76-1.32,1.74-.91-1.74-.91.76-1.32,1.66,1.06-.08-2h1.53l-.09,2,1.66-1.06.77,1.32-1.75.91,1.75.91-.77,1.32-1.66-1.06.09,2Z"/><path class="cls-4" d="M323.29,405l.07-2-1.66,1.06L321,402.8l1.73-.91L321,401l.75-1.32,1.66,1.06-.07-2h1.53l-.1,2,1.66-1.06.78,1.32-1.76.91,1.76.91-.78,1.32-1.66-1.06.1,2Z"/><text class="cls-13" transform="translate(92.75 147.52)">1</text><text class="cls-13" transform="translate(16.75 272.52)">3</text><text class="cls-14" transform="translate(398.58 222.13)">a</text><text class="cls-14" transform="translate(438.58 166.13)">9</text><text class="cls-15" transform="translate(210.31 147.51)">@</text><text class="cls-15" transform="translate(9.31 417.51)">%</text><text class="cls-14" transform="translate(83.58 355.13)">#</text><text class="cls-16" transform="translate(83.68 237.98)">$</text><text class="cls-14" transform="translate(504.58 473.13)">Z</text><text class="cls-14" transform="translate(502.58 373.13)">&amp;</text><text class="cls-14" transform="translate(538.58 253.13)">i</text><text class="cls-17" transform="translate(437.23 395.57)">E</text><text class="cls-14" transform="translate(111.58 453.13)">p</text><text class="cls-18" transform="translate(316.51 161.7)">*</text></svg>